<?xml version="1.0" standalone="no"?>
<!DOCTYPE svg PUBLIC "-//W3C//DTD SVG 1.1//EN" "http://www.w3.org/Graphics/SVG/1.1/DTD/svg11.dtd" >
<svg xmlns="http://www.w3.org/2000/svg">
<metadata>Generated by IcoMoon</metadata>
<defs>
<font id="zhlf" horiz-adv-x="1024">
<font-face units-per-em="1024" ascent="960" descent="-64" />
<missing-glyph horiz-adv-x="1024" />
<glyph unicode="&#x20;" horiz-adv-x="512" d="" />
<glyph unicode="&#xe900;" glyph-name="21" horiz-adv-x="1039" d="M885.818 900.648h-748.25c-75.856 0-137.569-61.714-137.569-137.569v-628.264c0-75.858 61.713-137.569 137.569-137.569h748.25c75.858 0 137.569 61.712 137.569 137.569v628.265c0 75.855-61.712 137.568-137.569 137.568zM959.894 763.080v-162.399h-296.467v236.474h222.391c40.847 0 74.076-33.23 74.076-74.075zM423.453 837.155h176.48v-461.551l-65.792 65.793c-12.396 12.398-32.499 12.398-44.898 0l-65.79-65.791v461.549zM137.568 837.155h222.392v-236.474h-296.467v162.399c0 40.845 33.23 74.075 74.075 74.075zM885.818 60.74h-748.25c-40.846 0-74.075 33.229-74.075 74.076v402.372h296.467v-238.226c0-12.837 7.735-24.415 19.597-29.33 11.862-4.913 25.518-2.197 34.597 6.883l97.538 97.537 97.541-97.537c6.072-6.075 14.19-9.301 22.453-9.301 4.088 0 8.213 0.791 12.141 2.418 11.863 4.915 19.597 16.493 19.597 29.33v238.226h296.467v-402.372c0.002-40.847-33.227-74.076-74.074-74.076z" />
<glyph unicode="&#xe901;" glyph-name="22" d="M779.288 65.423h-602.355c-62.28 0-112.944 50.668-112.944 112.943v539.268c0 62.28 50.663 112.944 112.944 112.944h602.355c62.276 0 112.944-50.664 112.944-112.944v-88.519c0-10.681-8.657-19.331-19.333-19.331-10.677 0-19.333 8.65-19.333 19.331v88.519c0 40.958-33.321 74.278-74.279 74.278h-602.354c-40.958 0-74.277-33.321-74.277-74.278v-539.268c0-40.956 33.32-74.277 74.277-74.277h602.355c40.958 0 74.279 33.321 74.279 74.277v104.803c0 10.676 8.656 19.332 19.333 19.332s19.333-8.656 19.333-19.332v-104.803c0-62.276-50.669-112.943-112.945-112.943zM877.983 327.938h-270.651c-44.886 0-81.401 36.515-81.401 81.4v91.57c0 44.884 36.515 81.4 81.4 81.4h270.652c44.884 0 81.4-36.516 81.4-81.4v-91.57c0-44.886-36.515-81.4-81.4-81.4zM607.332 543.642c-23.562 0-42.735-19.167-42.735-42.734v-91.57c0-23.568 19.172-42.736 42.735-42.736h270.65c23.566 0 42.74 19.167 42.74 42.735v91.571c0 23.567-19.173 42.734-42.74 42.734h-270.65zM657.188 418.493c-20.196 0-36.63 16.43-36.63 36.631 0 20.197 16.434 36.626 36.63 36.626 20.198 0 36.633-16.429 36.633-36.626 0-20.202-16.435-36.631-36.633-36.631zM657.188 457.158c-1.123-0.001-2.032-0.911-2.033-2.034v0c0-1.126 0.913-2.040 2.033-2.040 1.125 0 2.037 0.912 2.037 2.036s-0.912 2.036-2.037 2.036v0z" />
<glyph unicode="&#xe902;" glyph-name="uniE902" d="M512.967 236.422c-12.102 0-23.492 4.593-32.103 12.928l-166.879 161.529c-27.167 26.087-42.139 60.878-42.139 97.964s14.996 71.923 42.231 98.079c27.051 25.973 62.967 40.256 101.11 40.256 36.673 0 68.226-13.159 96.471-40.256l0.735-0.849 1.906 1.837c27.557 26.432 59.109 39.268 96.471 39.268 38.143 0 74.036-14.283 101.087-40.233v0c27.649-26.455 42.253-60.372 42.253-98.102 0-37.11-14.996-71.923-42.207-98.033l-166.833-161.482c-8.589-8.312-19.979-12.906-32.104-12.906zM415.187 611.906c-29.004 0-56.239-10.816-76.676-30.427-20.254-19.427-31.392-45.239-31.392-72.635s11.138-53.162 31.346-72.566l166.948-161.597c3.904-3.812 11.252-3.789 15.11-0.023l166.902 161.551c20.277 19.45 31.414 45.239 31.414 72.635 0 27.878-10.839 52.978-31.368 72.612l-0.023 0.023c-20.437 19.612-47.673 30.427-76.676 30.427-28.223 0-51.117-9.346-72.038-29.439l-25.329-30.818-26.547 30.152c-21.519 20.53-44.299 30.106-71.672 30.106zM511.337-2.241c-59.017 0-118.012 11.78-174.066 35.272-110.87 46.502-197.008 133.397-242.523 244.681-93.946 229.731 16.511 493.060 246.22 587.028 229.731 93.946 493.059-16.489 587.028-246.196 28.016-68.525 38.809-143.387 31.208-216.504-0.987-9.713-9.645-16.856-19.359-15.73-9.691 1.010-16.74 9.668-15.73 19.359 7.004 67.377-2.939 136.36-28.774 199.511-41.956 102.557-121.318 182.655-223.508 225.506-102.213 42.873-214.966 43.333-317.499 1.401-211.727-86.598-313.527-329.304-226.929-541.009 41.956-102.557 121.318-182.655 223.508-225.506 102.213-42.873 214.966-43.333 317.499-1.401 9.002 3.651 19.313-0.643 23.010-9.645 3.675-9.025-0.643-19.313-9.645-23.010-55.022-22.505-112.753-33.757-170.439-33.757zM830.582 133.865c-0.229 0-0.459 0-0.689 0.023-9.737 0.367-17.338 8.543-16.947 18.279l4.455 116.611c0.345 9.759 8.244 17.888 18.279 16.947 9.737-0.367 17.338-8.543 16.947-18.279l-4.455-116.611c-0.345-9.507-8.175-16.969-17.591-16.969zM947.193 129.411c-0.229 0-0.459 0-0.689 0.023l-116.611 4.455c-9.737 0.367-17.338 8.543-16.947 18.279 0.345 9.737 7.876 17.797 18.279 16.947l116.611-4.455c9.737-0.367 17.338-8.543 16.947-18.279-0.345-9.507-8.175-16.969-17.591-16.969z" />
<glyph unicode="&#xe903;" glyph-name="2" d="M933.269 480.97c14.36 0 26 11.642 26 26.002v191.732c0 67.572-54.973 122.546-122.545 122.546h-345.026c-67.572 0-122.546-54.974-122.546-122.546v-10.852h-122.095c-32.384 0-62.537-14.521-82.728-39.84l-92.546-116.050c-20.381-25.558-31.605-57.634-31.605-90.322v-250.075h70.229c2.961-62.838 55.006-113.050 118.563-113.050s115.603 50.211 118.564 113.050h255.768c2.962-62.838 55.007-113.050 118.564-113.050 63.578 0 115.635 50.244 118.566 113.11 65.863 1.968 118.838 56.154 118.838 122.485v36.854c0 14.36-11.641 26.001-26.001 26.001s-26.002-11.641-26.002-26.001v-36.854c0-38.898-31.645-70.544-70.543-70.544h-5.582c-18.090 42.488-60.26 72.352-109.276 72.352s-91.186-29.864-109.276-72.352h-191.436v455.138c0 38.898 31.646 70.544 70.544 70.544h345.026c38.898 0 70.543-31.646 70.543-70.544v-191.732c0-14.36 11.64-26.001 26.002-26.001zM228.969 130.517c-36.777 0-66.698 29.922-66.698 66.7s29.921 66.7 66.699 66.7 66.699-29.921 66.699-66.7-29.92-66.7-66.7-66.7zM338.247 243.567c-18.090 42.488-60.26 72.352-109.276 72.352-49.015 0-91.186-29.864-109.276-72.352h-27.515v198.073c0 20.954 7.195 41.516 20.26 57.899l92.546 116.050c10.267 12.875 25.602 20.26 42.070 20.26h122.096v-392.282h-30.905zM721.866 263.915c36.777 0 66.699-29.92 66.699-66.699s-29.92-66.7-66.7-66.7-66.698 29.922-66.698 66.7 29.92 66.7 66.699 66.7zM303.583 622.282c-14.36 0-26.001-11.64-26.001-26v-100.614h-100.614c-14.36 0-26.002-11.641-26.002-26.002s11.641-26 26.002-26h152.616v152.614c0 14.36-11.64 26.001-26 26.001z" />
<glyph unicode="&#xe904;" glyph-name="1" d="M511.66-64c-26.813 0-52.458 7.505-72.219 21.194-3.583 2.527-346.99 257.989-346.99 581.484 0 0.224-0.001 0.488-0.001 0.753 0 116.062 46.975 221.152 122.95 297.295l-0.008-0.008c75.67 76.149 180.463 123.281 296.264 123.281 0.067 0 0.135 0 0.202 0h-0.011c0.212 0 0.464 0.001 0.715 0.001 115.67 0 220.338-47.106 295.867-123.181l0.025-0.025c37.442-37.425 67.835-81.9 89.016-131.264l1.041-2.728c21.948-52.118 33.036-107.291 33.036-164.010 0-255.764-224.953-490.749-343.935-579.259-19.874-14.896-47.593-23.532-75.952-23.532zM511.849 903.431c-0.007 0-0.015 0-0.024 0-50.841 0-99.236-10.471-143.147-29.374l2.354 0.901c-44.942-19.303-83.297-45.668-115.531-78.12l-0.019-0.020c-65.783-65.907-106.462-156.891-106.462-257.376 0-0.269 0-0.538 0.001-0.807v0.042c0-256.217 254.595-487.242 322.816-535.061 20.742-14.444 62.074-13.652 81.911 1.207 89.416 66.524 321.232 292.006 321.232 533.967 0 49.139-9.617 96.92-28.624 142.024-19.227 45.081-45.521 83.572-77.913 115.965v0c-65.363 65.873-155.934 106.651-256.029 106.651-0.199 0-0.397 0-0.595 0h0.031zM509.775 331.299c-107.027 0-194.067 87.341-194.067 194.708s87.077 194.708 194.067 194.708c106.989 0 194.067-87.341 194.067-194.708s-87.040-194.708-194.067-194.708zM509.775 664.147c-75.839 0-137.499-61.961-137.499-138.14s61.697-138.14 137.499-138.14 137.499 61.961 137.499 138.14c0 76.179-61.659 138.14-137.499 138.14z" />
<glyph unicode="&#xe905;" glyph-name="3" d="M981.333 785.067v0 0 0zM1015.467 614.4c0 0 0 0 0 0 0 4.267 0 4.267-4.267 8.533l-85.333 213.333c-17.067 42.667-59.733 72.533-106.667 72.533h-610.133c-51.2 0-89.6-25.6-106.667-68.267l-89.6-221.867c0 0 0-4.267 0-4.267-8.533-21.333-12.8-42.667-12.8-64 0-76.8 42.667-145.067 106.667-179.2 0 0 0 0 0 0s0 0 0 0v0c0 0 0 0 0 0 25.6-12.8 59.733-21.333 93.867-21.333 59.733 0 115.2 25.6 153.6 72.533 38.4-46.933 93.867-72.533 153.6-72.533s115.2 25.6 153.6 72.533c38.4-46.933 93.867-72.533 153.6-72.533 38.4 0 68.267 8.533 98.133 21.333 64 34.133 106.667 102.4 106.667 179.2 4.267 21.333 0 42.667-4.267 64v0 0zM883.2 439.467c-17.067-8.533-38.4-12.8-59.733-12.8-46.933 0-85.333 21.333-110.933 59.733 0 4.267-4.267 8.533-8.533 17.067s-17.067 12.8-34.133 12.8c-12.8 0-29.867-4.267-34.133-17.067-4.267-4.267-8.533-12.8-8.533-17.067-29.867-34.133-72.533-59.733-115.2-59.733s-85.333 21.333-110.933 59.733c0 4.267-4.267 8.533-8.533 12.8-17.067 21.333-55.467 21.333-72.533 0-4.267-4.267-8.533-12.8-8.533-17.067-25.6-38.4-64-59.733-110.933-59.733-25.6 0-42.667 4.267-59.733 12.8v0 0c-42.667 21.333-68.267 68.267-68.267 115.2 0 12.8 4.267 29.867 8.533 42.667 0 0 0 0 0 4.267l89.6 217.6c0 4.267 8.533 21.333 34.133 21.333h605.867c12.8 0 29.867-4.267 38.4-25.6l85.333-213.333c0 0 0-4.267 0-4.267 4.267-12.8 8.533-29.867 8.533-42.667 8.533-42.667-17.067-85.333-59.733-106.667v0 0zM908.8 320c-21.333 0-38.4-17.067-38.4-38.4v-200.533c0-12.8-8.533-21.333-21.333-21.333h-695.467c-12.8 0-21.333 8.533-21.333 21.333v196.267c0 21.333-17.067 38.4-38.4 38.4v0c-21.333 0-38.4-17.067-38.4-38.4v-196.267c0-51.2 42.667-93.867 93.867-93.867h695.467c51.2 0 93.867 42.667 93.867 93.867v200.533c8.533 21.333-8.533 38.4-29.867 38.4v0 0zM802.133 580.267h-593.067c-21.333 0-38.4 17.067-38.4 38.4s17.067 38.4 38.4 38.4h588.8c21.333 0 38.4-17.067 38.4-38.4 0-25.6-17.067-38.4-34.133-38.4v0 0z" />
<glyph unicode="&#xe906;" glyph-name="4" d="M365.605 697.9l127.793 127.794 0.152-503.227c0.004-11.015 8.934-19.943 19.949-19.943 0.002 0 0.004 0 0.006 0 11.017 0.004 19.947 8.938 19.943 19.954l-0.152 503.1 127.676-127.677c3.897-3.897 9-5.843 14.106-5.843 5.104 0 10.213 1.948 14.106 5.842 7.79 7.79 7.79 20.422 0 28.213l-161.331 161.332c-3.639 3.87-8.791 6.3-14.522 6.3-0.002 0-0.004 0-0.006 0-0.006 0-0.012-0.001-0.018-0.001s-0.012 0.001-0.018 0.001c-5.292 0-10.364-2.102-14.106-5.842l-161.79-161.79c-7.789-7.79-7.789-20.422 0-28.213 7.79-7.791 20.422-7.791 28.213-0.001zM782.508 644.913h-139.795c-11.017 0-19.949-8.931-19.949-19.949s8.932-19.949 19.949-19.949h139.795c38.499 0 69.821-31.322 69.821-69.821v-425.444c0-38.499-31.322-69.821-69.821-69.821h-536.498c-38.499 0-69.821 31.322-69.821 69.821v425.445c0 38.499 31.322 69.821 69.821 69.821h143.936c11.018 0 19.949 8.931 19.949 19.949s-8.931 19.949-19.949 19.949h-143.936c-60.5 0-109.719-49.22-109.719-109.719v-425.444c0-60.5 49.22-109.719 109.719-109.719h536.498c60.5 0 109.719 49.22 109.719 109.719v425.443c0.001 60.5-49.219 109.719-109.719 109.719z" />
<glyph unicode="&#xe907;" glyph-name="5" d="M246.4 48c0-37.114 30.086-67.2 67.2-67.2s67.2 30.086 67.2 67.2v0c0 37.114-30.086 67.2-67.2 67.2s-67.2-30.086-67.2-67.2v0zM716.8 48c0-37.114 30.086-67.2 67.2-67.2s67.2 30.086 67.2 67.2v0c0 37.114-30.086 67.2-67.2 67.2s-67.2-30.086-67.2-67.2v0zM905.6 195.2h-537.6c-28.8 0-57.6 25.6-64 54.4l-96 566.4c-9.6 54.4-60.8 96-115.2 96h-22.4c-12.8 0-25.6-12.8-25.6-25.6s12.8-25.6 25.6-25.6h22.4c28.8 0 57.6-25.6 64-54.4l96-566.4c9.6-54.4 60.8-96 115.2-96h537.6c12.8 0 25.6 12.8 25.6 25.6s-9.6 25.6-25.6 25.6zM880 780.8h-572.8c-12.8 0-25.6-12.8-25.6-25.6s12.8-25.6 25.6-25.6h572.8c25.6 0 38.4-16 32-41.6l-70.4-281.6c-6.4-32-41.6-57.6-73.6-60.8l-396.8-28.8c-12.8 0-25.6-12.8-22.4-28.8 0-12.8 12.8-25.6 28.8-22.4l396.8 28.8c54.4 3.2 105.6 48 118.4 99.2l70.4 281.6c12.8 54.4-25.6 105.6-83.2 105.6z" />
<glyph unicode="&#xe908;" glyph-name="6" d="M859.429 9.143h-694.857c-10.099 0-18.286 8.187-18.286 18.286v0 841.143c0 10.099 8.187 18.286 18.286 18.286h694.857c10.099 0 18.286-8.187 18.286-18.286v-841.143c0-10.099-8.187-18.286-18.286-18.286v0zM182.857 45.714h658.286v804.571h-658.286zM512 576c-201.509 0-365.714 131.291-365.714 292.571 0 10.099 8.187 18.286 18.286 18.286s18.286-8.187 18.286-18.286v0c0-141.166 146.286-256 329.143-256s329.143 114.834 329.143 256c0 10.099 8.187 18.286 18.286 18.286s18.286-8.187 18.286-18.286v0c0-161.28-164.206-292.571-365.714-292.571zM640 338.286h-256c-10.099 0-18.286 8.187-18.286 18.286s8.187 18.286 18.286 18.286v0h256c10.099 0 18.286-8.187 18.286-18.286s-8.187-18.286-18.286-18.286v0zM640 246.857h-256c-10.099 0-18.286 8.187-18.286 18.286s8.187 18.286 18.286 18.286h256c10.099 0 18.286-8.187 18.286-18.286s-8.187-18.286-18.286-18.286v0zM512 137.143c-10.099 0-18.286 8.187-18.286 18.286v0 182.857c0 10.099 8.187 18.286 18.286 18.286s18.286-8.187 18.286-18.286v0-182.857c0-10.099-8.187-18.286-18.286-18.286v0zM512 338.286c-4.605 0.021-8.82 1.675-12.099 4.413l0.030-0.025c-3.836 3.431-6.239 8.396-6.239 13.921 0 4.604 1.668 8.818 4.432 12.071l-0.022-0.027 128 146.286c3.393 3.892 8.359 6.337 13.897 6.337 10.165 0 18.406-8.241 18.406-18.406 0-4.628-1.708-8.856-4.528-12.091l0.019 0.022-128-146.286c-3.454-3.786-8.393-6.167-13.888-6.217h-0.009zM512 338.286c-5.504 0.050-10.443 2.431-13.884 6.202l-0.013 0.015-128 146.286c-2.801 3.212-4.509 7.441-4.509 12.069 0 10.165 8.241 18.406 18.406 18.406 5.538 0 10.504-2.446 13.878-6.315l0.019-0.022 128-146.286c2.742-3.227 4.41-7.441 4.41-12.044 0-5.526-2.403-10.49-6.221-13.906l-0.018-0.016c-3.248-2.713-7.463-4.368-12.064-4.389h-0.004z" />
<glyph unicode="&#xe909;" glyph-name="7" d="M912.72 168.668l-207.141 359.305h22.348l22.371 43.812c27.107 55.312 25.627 119.713-4.066 176.688-31.866 61.153-92.598 105.507-158.493 115.76l-60.997 9.488-10.202-24.871c-30.163 29.568-80.129 35.762-121.904 11.757-22.866-13.18-40.096-33.583-48.54-57.5-4.9-13.92-6.203-28.334-4.575-42.233-39.55 1.177-88.070 4.036-148.8 8.030l-56.184 3.697-21.353-52.098c-30.855-75.283-15.124-177.557 43.158-280.59 48.939-86.519 135.73-184.26 232.548-199.115l54.53-8.367 26.197 48.552c27.088 50.203 49.134 89.774 67.856 121.642l194.312-337.072c11.749-20.402 31.29-35.149 55.016-41.53 8.539-2.291 17.383-3.4 26.304-3.4 18.931 0 38.11 5.082 55.169 14.939 22.866 13.18 40.096 33.582 48.54 57.5 9.036 25.672 6.82 53.218-6.092 75.606zM419.89 777.090c2.196 6.19 7.22 11.92 13.83 15.74 12.225 7.030 25.902 5.12 29.608-1.26l10.734-18.623c-10.71-6.257-26.266-9.81-51.18-11.46l-2.916 5.058c-2.045 3.553-0.917 8.138-0.077 10.545zM402.757 318.137c-111.71 17.14-265.488 249.929-215.173 372.692 79.979-5.263 141.905-8.8 190.622-8.8 127.36 0 164.4 24.175 197.505 104.888 79.615-12.386 142.249-103.32 104.327-180.7h-0.902c-107.002 0.001-141.48-38.058-276.38-288.080zM845.021 119.077c-2.197-6.188-7.22-11.92-13.85-15.74-7.144-4.165-15.34-5.501-22.083-3.744-2.483 0.688-5.807 2.1-7.507 5.005l-214.52 372.094c13.74 18.523 25.232 30.718 35.77 38.204l222.114-385.273c2.042-3.554 0.916-8.139 0.076-10.545z" />
<glyph unicode="&#xe90a;" glyph-name="8" d="M967.512 460.658c-0.163 6.002-0.447 11.982-0.843 17.94-0.697 11.583-1.868 23.135-3.541 34.623-5.182 35.57-14.448 69.554-27.241 101.553-0.055 0.137-0.108 0.275-0.164 0.412-0.56 1.396-1.128 2.785-1.7 4.173-0.144 0.35-0.288 0.7-0.433 1.050-0.503 1.211-1.014 2.417-1.527 3.621-0.221 0.518-0.44 1.037-0.663 1.553-0.457 1.061-0.92 2.118-1.385 3.174-0.287 0.652-0.572 1.303-0.863 1.952-0.419 0.938-0.842 1.874-1.267 2.809-0.345 0.759-0.69 1.519-1.039 2.276-0.387 0.839-0.779 1.677-1.171 2.513-0.393 0.839-0.787 1.677-1.185 2.513-0.365 0.766-0.734 1.531-1.103 2.295-0.433 0.895-0.867 1.79-1.306 2.682-0.35 0.712-0.703 1.421-1.057 2.132-0.465 0.932-0.931 1.862-1.402 2.792-0.344 0.678-0.691 1.355-1.039 2.031-0.485 0.945-0.973 1.889-1.465 2.83-0.348 0.665-0.698 1.327-1.048 1.99-0.498 0.941-1 1.882-1.504 2.82-0.358 0.665-0.718 1.328-1.080 1.99-0.503 0.923-1.009 1.845-1.52 2.765-0.378 0.682-0.757 1.361-1.139 2.039-0.496 0.885-0.996 1.768-1.499 2.649-0.41 0.718-0.822 1.436-1.236 2.151-0.48 0.83-0.962 1.66-1.447 2.487-0.449 0.766-0.902 1.531-1.355 2.293s-0.91 1.526-1.368 2.286c-0.501 0.832-1.006 1.662-1.512 2.49-0.415 0.678-0.832 1.356-1.25 2.032-0.564 0.911-1.132 1.819-1.702 2.725-0.367 0.584-0.737 1.168-1.107 1.751-0.633 0.996-1.27 1.988-1.911 2.979-0.314 0.485-0.628 0.969-0.943 1.453-0.71 1.089-1.425 2.174-2.145 3.255-0.252 0.378-0.502 0.755-0.755 1.133-0.795 1.188-1.597 2.372-2.404 3.552-0.181 0.265-0.362 0.531-0.544 0.795-0.886 1.291-1.78 2.577-2.679 3.857-0.107 0.152-0.214 0.305-0.321 0.457-0.984 1.398-1.976 2.789-2.975 4.173-0.025 0.035-0.049 0.069-0.075 0.103-11.776 16.313-24.605 31.761-38.375 46.261-0.044 0.047-0.089 0.094-0.133 0.141-1.041 1.095-2.088 2.183-3.138 3.266-0.317 0.327-0.633 0.656-0.952 0.983-0.709 0.727-1.423 1.449-2.137 2.17-0.691 0.699-1.38 1.399-2.076 2.094-0.252 0.251-0.504 0.499-0.756 0.75-2.161 2.151-4.341 4.287-6.551 6.4-43.485 41.573-93.244 72.614-146.096 93.207-50.768 19.924-105.661 30.738-162.359 30.729-24.409 0.36-48.93-1.29-73.449-4.963-33.483-5.016-65.549-13.64-95.874-25.404-0.019-0.008-0.040-0.015-0.059-0.024-1.404-0.544-2.805-1.096-4.201-1.654-0.673-0.268-1.347-0.54-2.019-0.813-0.747-0.303-1.494-0.606-2.239-0.913-5.53-2.269-11.026-4.645-16.482-7.142-54.622-24.989-103.011-60.282-143.824-104.896-51.071-55.829-85.339-121.187-103.089-189.802-14.935-56.952-18.842-117.755-9.603-179.569 16.137-107.973 69.704-204.318 151.942-274.49 0.971-0.833 1.947-1.659 2.925-2.483 0.016-0.013 0.033-0.028 0.049-0.042 81.144-68.402 182.2-105.321 288.265-105.319 6.758 0.001 13.544 0.15 20.34 0.451 6.384 0.282 12.278 3.036 16.59 7.749 4.314 4.714 6.533 10.829 6.248 17.213-0.282 6.385-3.034 12.279-7.746 16.593-4.712 4.315-10.833 6.543-17.212 6.252-92.479-4.099-181.567 23.182-255.045 77.396-0.343 0.284-0.674 0.579-1.036 0.846-7.724 5.713-15.201 11.67-22.435 17.85-0.726 0.623-1.453 1.243-2.175 1.873-0.079 0.069-0.157 0.137-0.235 0.205-2.477 2.161-4.933 4.354-7.367 6.582-113 103.439-153.081 257.25-117.365 396.214 30.442 116.854 112.87 215.619 224.544 265.569 1.086 0.483 2.169 0.97 3.258 1.444 1.002 0.438 2.008 0.871 3.014 1.301 2.414 1.025 4.833 2.035 7.263 3.012 0.269 0.108 0.538 0.217 0.807 0.324 41.791 16.697 85.852 26.168 131.258 28.181 52.040 2.307 103.194-5.296 152.032-22.597 5.869-2.079 11.667-4.302 17.405-6.64 0.602-0.247 1.209-0.482 1.808-0.732 1.441-0.596 2.865-1.221 4.298-1.832 28.399-12.195 55.355-27.657 80.562-46.303 7.709-5.702 15.179-11.65 22.411-17.83 0.202-0.173 0.406-0.343 0.608-0.516 1.531-1.313 3.035-2.653 4.545-3.988 1.315-1.168 2.634-2.328 3.936-3.515 1.367-1.241 2.724-2.493 4.074-3.751 18.071-16.919 34.373-35.252 48.802-54.766 0.402-0.545 0.803-1.092 1.203-1.639 1.29-1.764 2.564-3.538 3.824-5.32 0.92-1.305 1.836-2.613 2.741-3.928 0.731-1.061 1.456-2.124 2.177-3.192 1.292-1.918 2.574-3.845 3.834-5.787 0.358-0.551 0.714-1.103 1.069-1.655 1.459-2.272 2.899-4.559 4.314-6.864 34.841-56.737 55.054-121.646 58.385-189.936 0.043-0.883 0.144-1.753 0.279-2.614 3.832-88.115-21.322-174.376-72.626-247.294l-191.87 0.36c-29.528-1.737-43.911 16.279-42.175 40.596v88.584c0 13.895-8.685 20.843-26.054 20.843s-26.054-6.947-26.054-20.843v-112.033c1.737-41.687 31.264-63.399 88.584-65.135l218.633 0.803c0 0 0.039 0.057 0.108 0.16 4.589 0.003 9.119 2.091 12.046 6.067 59.651 80.753 93.691 182.056 92.424 282.448 0.080 0.704 0.13 1.419 0.109 2.151zM253.381 218.531c-20.844-6.948-29.529-19.106-26.054-36.476 8.685-17.369 23.448-23.448 44.292-18.237 130.27 33.002 220.59 101.61 270.961 205.827h208.431c31.265-1.738 46.028 17.369 44.292 57.318v117.243c3.474 34.739-13.027 50.371-49.502 46.897h-140.691c22.58 34.739 37.345 60.793 44.292 78.162 19.106 41.686 3.474 62.529-46.897 62.529h-138.086c3.474 5.211 6.079 8.685 7.817 10.421 8.685 20.843 5.211 36.476-10.421 46.897-15.633 6.948-28.66 0.869-39.081-18.237-46.897-95.532-105.084-163.272-174.562-203.221-17.369-10.421-22.58-23.449-15.632-39.081 10.421-13.895 25.186-15.632 44.292-5.211 5.211 3.473 10.421 6.947 15.632 10.421 1.737 0 3.474 0.869 5.211 2.605v-117.242c-1.737-34.739 13.895-51.239 46.897-49.502h135.481c-39.949-72.953-115.506-123.323-226.669-151.114zM719.747 541.602c17.37 3.473 25.186-4.343 23.449-23.449v-75.557c0-17.37-7.817-25.186-23.449-23.449v0.001h-164.139c6.947 31.265 11.29 72.083 13.027 122.454h151.113zM433.153 677.081h143.297c6.947 0 11.29-0.869 13.027-2.605s0.869-5.211-2.605-10.421c-8.685-19.107-24.317-43.424-46.897-72.951h-179.772c24.318 22.58 48.635 51.239 72.951 85.978zM373.229 419.146c-17.37-1.737-26.054 6.079-26.054 23.449v78.162c1.737 13.895 10.421 20.844 26.053 20.843h140.692c-1.737-13.895-1.737-18.237 0-13.027-5.211-55.583-9.553-92.058-13.027-109.427h-127.665z" />
<glyph unicode="&#xe90b;" glyph-name="9" d="M512-64c-282.778 0-512 229.222-512 512s229.222 512 512 512 512-229.222 512-512-229.222-512-512-512zM341.683 513.869h-60.083v-257.536c0-22.861 12.237-33.843 22.502-39.014 10.445-5.274 24.166-7.629 44.493-7.629h319.898c20.352 0 34.074 2.355 44.518 7.629 10.24 5.171 22.502 16.128 22.502 39.014v257.536h-60.083c-0.005 9.472-0.135 18.885-0.389 28.267l0.030-1.412c-2.867 49.408-20.992 91.059-52.403 120.422-14.541 13.584-31.823 24.446-50.902 31.647l-1.066 0.353c-18.158 6.876-39.152 10.858-61.075 10.858-0.38 0-0.76-0.001-1.14-0.004h0.058c-0.314 0.002-0.685 0.003-1.056 0.003-22.070 0-43.195-4.048-62.673-11.441l1.214 0.404c-20.231-7.668-37.574-18.674-52.222-32.505l0.075 0.070c-31.488-29.747-49.434-71.808-51.942-121.6-0.128-2.765-0.205-15.437-0.256-25.088zM497.075 300.416v113.101h22.963v-113.101h-22.963zM364.646 513.869c0.051 9.651 0.128 21.76 0.256 23.936 4.301 85.914 62.029 143.616 143.642 143.616 82.253 0 138.598-55.731 143.616-141.978 0.128-2.56 0.256-15.462 0.307-25.6h-287.821z" />
<glyph unicode="&#xe90c;" glyph-name="10" d="M511.998-1.993c-60.745 0-119.679 11.899-175.162 35.365-53.586 22.665-101.709 55.111-143.034 96.435s-73.769 89.447-96.434 143.034c-23.467 55.483-35.366 114.415-35.366 175.162 0 60.745 11.899 119.678 35.366 175.162 22.665 53.586 55.11 101.709 96.434 143.034s89.447 73.77 143.034 96.435c55.483 23.467 114.415 35.366 175.162 35.366 69.203 0 135.588-15.293 197.312-45.453l-6.443-13.186c-59.701 29.172-123.918 43.963-190.868 43.963-240.037 0-435.321-195.283-435.321-435.319s195.283-435.321 435.321-435.321 435.321 195.283 435.321 435.321c0 42.747-6.18 84.979-18.367 125.522l14.054 4.225c12.601-41.914 18.99-85.567 18.99-129.747 0-60.745-11.9-119.679-35.366-175.162-22.665-53.586-55.11-101.709-96.434-143.034-41.324-41.323-89.447-73.769-143.035-96.435-55.484-23.468-114.416-35.367-175.162-35.367zM313.093 606.94h83.021v-14.676h-83.021v14.676zM457.287 606.94h124.531v-14.676h-124.531v14.676zM313.093 439.805h83.021v-14.676h-83.021v14.676zM587.029 425.129h-129.741v14.676h123.691l321.201 319.028 10.342-10.413zM313.093 272.671h83.021v-14.676h-83.021v14.676zM457.287 272.671h338.638v-14.676h-338.638v14.676z" />
<glyph unicode="&#xe90d;" d="M997.948 938.279c-13.584 13.427-32.267 21.721-52.887 21.721-0.292 0-0.583-0.002-0.873-0.005h-864.427c-41.64-0.033-75.39-33.768-75.448-75.399v-873.207c0.227-41.565 33.878-75.195 75.429-75.39h864.49c41.64 0.033 75.39 33.768 75.448 75.399v873.192c0.003 0.242 0.004 0.529 0.004 0.816 0 20.618-8.3 39.297-21.742 52.879l0.006-0.006zM81.975 0.402c-7.255 0.008-13.139 5.867-13.188 13.112v868.819c0 0.013 0 0.028 0 0.043 0 7.261 5.862 13.153 13.112 13.202h862.434c7.25-0.008 13.131-5.859 13.188-13.097v-863.555l-0.173-0.173c-1.297-1.301-2.1-3.096-2.1-5.078 0-0.005 0-0.009 0-0.014v0.001c0-0.013 0-0.028 0-0.043 0-7.261-5.862-13.153-13.112-13.202h-0.005z" />
<glyph unicode="&#xe90e;" d="M794.917 520.31c-0.417 17.776-12.742 30.073-33.079 33.079l-142.957 23.011-62.346 133.925c-7.924 15.981-24.127 26.775-42.85 26.775-7.609 0-14.801-1.782-21.182-4.952l0.277 0.125c-9.618-4.791-17.223-12.414-21.865-21.768l-0.125-0.279-62.346-133.853-143.029-23.011c-14.382-2.387-31.712-12.124-37.523-32.244-4.991-15.144-1.007-33.395 10.427-47.676l0.374-0.431 106.283-108.598-25.427-150.234v-0.144c-2.474-17.373 4.315-33.913 18.581-45.346l0.316-0.244c7.205-5.067 16.161-8.097 25.825-8.097 0.022 0 0.044 0 0.066 0h1.061c7.794 0.203 15.088 2.146 21.57 5.453l-0.285-0.132h0.144l124.447 66.833 124.404-66.747c0.255-0.14 0.554-0.271 0.866-0.376l0.041-0.012c1.438-0.475 2.747-0.949 4.027-1.438 5.163-1.855 10.067-3.595 16.741-3.595 9.867 0.173 19.014 3.113 26.738 8.075l-0.203-0.122c0.199 0.123 0.368 0.242 0.53 0.369l-0.012-0.009c14.296 11.506 21.070 27.959 18.581 45.332v0.144l-25.399 150.234 106.225 108.555c8.31 8.433 13.442 20.018 13.442 32.801 0 5.221-0.856 10.243-2.436 14.931l0.096-0.33zM396.854 381.841c0.045 0.27 0.071 0.582 0.071 0.899 0 1.551-0.614 2.958-1.611 3.993l0.002-0.002-117.084 121.513 160.905 24.248c1.921 0.309 3.5 1.533 4.3 3.201l0.015 0.035 70.155 149.083 70.184-149.083c0.814-1.703 2.394-2.927 4.282-3.232l0.033-0.004 161.078-24.262-117.256-123.886c-0.941-1.021-1.518-2.39-1.518-3.893 0-0.337 0.029-0.667 0.084-0.988l-0.005 0.034 26.362-167.363-140.454 76.814c-0.79 0.435-1.731 0.69-2.733 0.69s-1.943-0.256-2.762-0.705l0.030 0.015-140.54-74.657z" />
<glyph unicode="&#xe90f;" glyph-name="12" d="M512 632c-100.8 0-184-83.2-184-184s83.2-184 184-184 184 83.2 184 184-83.2 184-184 184zM512 312c-75.2 0-136 60.8-136 136s60.8 136 136 136 136-60.8 136-136-60.8-136-136-136zM857.6 387.2c-20.8 12.8-33.6 35.2-33.6 60.8s12.8 46.4 33.6 60.8c14.4 9.6 20.8 27.2 16 44.8-8 27.2-19.2 52.8-32 76.8-8 14.4-25.6 24-43.2 19.2-24-4.8-48 1.6-65.6 19.2s-24 41.6-19.2 65.6c3.2 16-4.8 33.6-19.2 43.2-24 14.4-51.2 24-76.8 32-16 4.8-35.2-1.6-44.8-16-12.8-20.8-35.2-33.6-60.8-33.6s-46.4 12.8-60.8 33.6c-9.6 14.4-27.2 20.8-44.8 16-27.2-8-52.8-19.2-76.8-32-14.4-8-24-25.6-19.2-43.2 4.8-24-1.6-49.6-19.2-65.6-17.6-17.6-41.6-24-65.6-19.2-16 3.2-33.6-4.8-43.2-19.2-14.4-24-24-51.2-32-76.8-4.8-16 1.6-35.2 16-44.8 20.8-12.8 33.6-35.2 33.6-60.8s-12.8-46.4-33.6-60.8c-14.4-9.6-20.8-27.2-16-44.8 8-27.2 19.2-52.8 32-76.8 8-14.4 25.6-22.4 43.2-19.2 24 4.8 49.6-1.6 65.6-19.2 17.6-17.6 24-41.6 19.2-65.6-3.2-16 4.8-33.6 19.2-43.2 24-14.4 51.2-24 76.8-32 16-4.8 35.2 1.6 44.8 16 12.8 20.8 35.2 33.6 60.8 33.6s46.4-12.8 60.8-33.6c8-11.2 20.8-17.6 33.6-17.6 3.2 0 8 0 11.2 1.6 27.2 8 52.8 19.2 76.8 32 14.4 8 24 25.6 19.2 43.2-4.8 24 1.6 49.6 19.2 65.6 17.6 17.6 41.6 24 65.6 19.2 16-3.2 33.6 4.8 43.2 19.2 14.4 24 24 51.2 32 76.8 4.8 17.6-1.6 35.2-16 44.8zM801.6 294.4c-38.4 6.4-76.8-6.4-104-33.6s-40-65.6-33.6-104c-17.6-9.6-36.8-17.6-56-24-22.4 30.4-57.6 49.6-97.6 49.6-38.4 0-73.6-17.6-97.6-49.6-19.2 6.4-38.4 14.4-56 24 6.4 38.4-6.4 76.8-33.6 104s-65.6 40-104 33.6c-9.6 17.6-17.6 36.8-24 56 30.4 22.4 49.6 57.6 49.6 97.6 0 38.4-17.6 73.6-49.6 97.6 6.4 19.2 14.4 38.4 24 56 38.4-6.4 76.8 6.4 104 33.6s40 65.6 33.6 104c17.6 9.6 36.8 17.6 56 24 22.4-30.4 57.6-49.6 97.6-49.6 38.4 0 73.6 17.6 97.6 49.6 19.2-6.4 38.4-14.4 56-24-6.4-38.4 6.4-76.8 33.6-104s65.6-40 104-33.6c9.6-17.6 17.6-36.8 24-56-30.4-22.4-49.6-57.6-49.6-97.6 0-38.4 17.6-73.6 49.6-97.6-6.4-19.2-14.4-38.4-24-56z" />
<glyph unicode="&#xe910;" glyph-name="13" d="M516.98 803.933c24.797 58.805 60.6 108.565 105.195 148.757l0.37 0.328c4.445 3.817 10.269 6.141 16.635 6.141 14.138 0 25.6-11.462 25.6-25.6 0-7.305-3.059-13.895-7.967-18.559l-0.011-0.010c-26.141-23.553-48.607-50.462-66.915-80.205l-0.902-1.575c46.545 14.289 101.004 24.017 140.474 24.017h12.753c155.415 0 281.367-103.796 281.367-358.121 0-254.278-177.105-562.735-332.521-562.735-81.361 0-131.025 22.807-179.060 46.313-48.035-23.459-97.745-46.313-179.060-46.313-155.415 0-332.521 308.457-332.521 562.735s125.952 358.121 281.367 358.121h12.753c56.553 0 143.593-19.968 194.42-44.591l23.040-11.171 4.98 2.42zM499.386 751.942c-3.711 0.957-6.932 2.167-9.981 3.671l0.3-0.134-23.040 11.171c-43.892 21.271-123.345 39.471-172.125 39.471h-12.753c-142.801 0-230.214-99.095-230.214-306.967 0-232.588 163.188-511.581 281.367-511.581 59.206 0 93.975 10.519 156.579 41.146 6.563 3.28 14.298 5.2 22.481 5.2s15.918-1.92 22.779-5.334l-0.297 0.134c62.604-30.673 97.373-41.146 156.579-41.146 118.179 0 281.367 278.993 281.367 511.581 0 207.872-87.412 306.967-230.214 306.967h-12.753c-48.78 0-128.093-18.153-171.985-39.424-11.729-33.094-18.618-67.677-20.433-102.726-0.204-3.806-1.214-7.332-2.86-10.473l0.067 0.14c29.293 3.759 54.966 16.977 74.377 36.442l0.003 0.003c4.534 4.147 10.597 6.687 17.253 6.687 14.138 0 25.6-11.462 25.6-25.6 0-6.657-2.541-12.72-6.705-17.273l0.018 0.020c-32.403-32.397-77.163-52.434-126.604-52.434s-94.201 20.038-126.604 52.435v0c-5.137 4.698-8.347 11.431-8.347 18.913 0 14.138 11.462 25.6 25.6 25.6 7.482 0 14.214-3.21 18.895-8.327l0.018-0.020c16.477-16.477 37.143-28.16 59.764-33.745-1.001 2.627-1.58 5.664-1.58 8.837 0 0.526 0.016 1.049 0.047 1.567l-0.003-0.071c1.489 28.998 6.051 57.53 13.405 85.271z" />
<glyph unicode="&#xe911;" glyph-name="14" d="M493.378 789.29c-188.523 0-341.284-152.884-341.284-341.296s152.736-341.407 341.284-341.407 341.296 152.896 341.296 341.42-152.773 341.284-341.296 341.284zM626.956 428.12c13.44-0.003 24.335-10.899 24.335-24.34s-10.894-24.337-24.334-24.34h-109.238v-120.661c-0.003-13.44-10.899-24.335-24.34-24.335s-24.337 10.894-24.34 24.334v0 120.772h-109.226c-0.163-0.004-0.355-0.006-0.548-0.006-13.442 0-24.34 10.897-24.34 24.34s10.897 24.34 24.34 24.34c0.193 0 0.385-0.002 0.576-0.007l-0.028 0.001h109.238v57.142h-109.238c-13.44 0.003-24.335 10.899-24.335 24.34s10.894 24.337 24.334 24.34h109.238v6.514l-77.928 79.15c-0.061 0-0.111 0.050-0.111 0.111v0c0 0.061-0.050 0.111-0.111 0.111v0l-0.58 0.567 0.111 0.111c-4 4.294-6.455 10.074-6.455 16.427 0 13.327 10.803 24.13 24.13 24.13 6.494 0 12.389-2.565 16.726-6.738l-0.008 0.007 0.111 0.111 0.691-0.691c0.061 0 0.111-0.050 0.111-0.111v0c0-0.061 0.050-0.111 0.111-0.111v0l67.060-68.331 67.529 68.787c4.418 4.505 10.568 7.297 17.37 7.297 13.432 0 24.321-10.889 24.321-24.321 0-6.63-2.653-12.641-6.956-17.028l0.004 0.004-77.349-78.73v-7.402h109.226c13.408 0 24.278-10.87 24.278-24.278s-10.87-24.278-24.278-24.278h-109.226v-57.129zM493.378 960c-169.217 0-319.017-82.271-412.242-208.755l-30.964 17.826-0.222-0.111c-2.889 1.564-6.325 2.483-9.975 2.483-7.814 0-14.644-4.211-18.345-10.488l-0.054-0.099c-1.556-2.774-2.472-6.088-2.472-9.615 0-0.154 0.002-0.308 0.005-0.462v0.023l-0.456-0.234 11.423-115.628 0.567-0.345c0.534-10.829 9.443-19.406 20.356-19.406 3.415 0 6.634 0.84 9.461 2.325l-0.112-0.053 0.58-0.345 103.859 47.075v0.456c3.931 1.74 7.128 4.536 9.312 8.030l0.051 0.087c1.747 3.016 2.778 6.636 2.778 10.497 0 7.155-3.541 13.483-8.967 17.326l-0.066 0.044v0.493l-30.619 17.826c81.765 107.363 210.531 177.088 356.1 177.088 247.491 0 448.005-200.662 448.005-448.030s-200.514-448.018-448.005-448.018c-170.241 0-318.203 94.829-394.083 234.686l-58.277-26.165c85.922-162.025 256.052-272.509 452.348-272.509 282.798 0 511.957 229.209 511.957 511.957s-229.147 512.043-511.944 512.043z" />
<glyph unicode="&#xe912;" glyph-name="15" horiz-adv-x="1280" d="M1201.306 554.189l-0.154 0.102c-8.176 8.027-17.488 14.939-27.663 20.464l-0.651 0.323v198.758c-0.173 20.143-16.542 36.404-36.709 36.404-0.108 0-0.217 0-0.325-0.001h-27.426v96.307c-0.202 20.121-16.559 36.354-36.709 36.354-0.127 0-0.253-0.001-0.379-0.002h-857.939c-42.598 0-81.408-16.742-111.36-44.544-7.936-7.066-15.002-14.848-20.941-23.142-23.973-31.619-38.401-71.623-38.401-114.997 0-0.251 0-0.503 0.001-0.754v0.039-590.797c0-49.664 18.637-94.976 48.691-128 31.078-34.202 74.24-55.296 122.010-55.296h922.47c20.48 0 37.018 16.282 37.018 36.352v248.32c10.445 5.632 20.019 12.595 28.467 20.89 22.236 21.682 36.032 51.929 36.045 85.399v92.52c0 33.28-13.824 63.437-36.045 85.299zM146.381 839.322l2.048 2.15c5.222 5.274 11.622 10.035 18.944 14.131 16.991 9.197 37.196 14.604 58.664 14.604 0.598 0 1.195-0.004 1.791-0.013l-0.090 0.001h806.502v-59.904h-809.83c-23.245 0-44.134 4.915-60.314 13.21-7.484 3.735-13.901 8.353-19.465 13.833l0.009-0.009 1.741 1.997zM1098.701 58.112h-885.299c-25.958 0-49.664 11.827-66.97 30.874-18.38 20.745-29.604 48.197-29.604 78.27 0 0.545 0.004 1.090 0.011 1.633l-0.001-0.082v590.694c0 2.406 0.102 4.813 0.205 7.168 4.198-2.662 8.499-5.12 12.954-7.424 26.624-13.619 59.392-21.76 94.464-21.76h874.291v-147.814h-418.97c-33.894 0-64.614-13.517-86.835-35.328l-0.154-0.154c-22.212-21.658-36.003-51.864-36.045-85.291v-92.526c0-33.28 13.824-63.386 36.045-85.248l0.154-0.154c22.289-21.876 52.861-35.379 86.588-35.379 0.087 0 0.174 0 0.261 0h418.957v-197.478zM1163.213 376.371c0-13.261-5.478-25.293-14.336-33.946-8.877-8.706-21.050-14.080-34.478-14.080-0.029 0-0.057 0-0.086 0h-434.53c-0.061 0-0.134 0-0.207 0-13.377 0-25.514 5.311-34.417 13.939l0.013-0.012-0.154 0.154c-8.758 8.64-14.182 20.638-14.182 33.904 0 0.015 0 0.029 0 0.044v-0.002 92.518c0 0.012 0 0.027 0 0.042 0 13.266 5.425 25.264 14.177 33.899l0.159 0.159c8.883 8.616 21.013 13.927 34.384 13.927 0.080 0 0.16 0 0.24-0.001h434.522c13.517 0 25.754-5.325 34.56-13.926l0.154-0.154c8.758-8.64 14.182-20.638 14.182-33.904 0-0.015 0-0.029 0-0.044v0.002-92.518zM735.642 484.352c-15.104 0-28.774-5.99-38.656-15.718-9.847-9.646-15.951-23.080-15.951-37.939s6.104-28.293 15.942-37.93l0.009-0.009c9.882-9.728 23.552-15.718 38.656-15.718 15.053 0 28.723 6.042 38.605 15.718 9.847 9.646 15.951 23.080 15.951 37.939s-6.104 28.293-15.942 37.93l-0.009 0.009c-9.91 9.72-23.501 15.719-38.492 15.719-0.040 0-0.079 0-0.119 0h0.006zM748.032 418.509c-3.181-3.071-7.518-4.963-12.297-4.963-9.585 0-17.392 7.612-17.705 17.12l-0.001 0.029c0 4.762 1.997 9.114 5.12 12.237 3.197 3.155 7.592 5.104 12.442 5.104s9.244-1.949 12.444-5.106l-0.002 0.002c3.166-3.106 5.129-7.429 5.129-12.211s-1.963-9.105-5.126-12.209l-0.003-0.003z" />
<glyph unicode="&#xe913;" glyph-name="16" horiz-adv-x="1483" d="M0 677.376c0 29.184 5.12 49.664 14.336 62.464 9.728 12.288 30.208 18.432 62.976 18.432h201.728v-807.424h-86.528c-23.040 0-46.080 0-68.608 0.512s-37.888 0.512-46.592 0.512c-28.16-1.024-48.64 3.584-59.904 14.848-11.264 10.752-17.408 31.232-17.408 61.44v232.448c0 11.776 2.048 20.992 5.632 26.624s11.264 10.24 23.040 12.288c4.096 0 9.728 1.536 17.408 5.12 7.168 3.584 14.848 8.704 22.016 15.36 7.168 7.168 13.824 15.872 18.944 27.648 5.12 11.264 7.68 25.088 7.68 40.96 0 24.576-6.656 44.032-19.456 57.856-13.312 13.824-27.136 22.016-41.984 24.064-11.264 2.048-19.968 5.632-25.088 10.752s-7.68 13.312-7.68 25.088v171.008h-0.512zM131.072 830.464v42.496c0 21.504 8.192 41.472 24.576 59.904 15.872 17.92 33.28 27.136 52.224 27.136h217.6v-129.536h-294.4zM1415.68 480.256c-8.192-2.048-14.336-6.656-17.92-13.824-3.584-6.656-5.632-14.848-5.632-23.040 0-8.704 2.048-16.896 5.632-25.088s9.728-13.824 17.92-16.896c8.192-3.584 15.36-9.728 19.968-19.456 5.12-9.728 7.68-19.968 7.68-30.72 0.512-10.752-1.024-20.992-4.096-30.72s-7.68-16.896-13.824-20.992c-20.992-12.8-31.232-27.648-31.232-43.52 0-16.384 10.24-32.256 31.232-48.128 4.096-3.584 8.192-9.216 11.776-17.92s5.632-17.408 5.632-26.112c0-8.704-2.048-15.872-6.144-22.528s-11.776-9.728-22.016-9.728h-84.992c-6.144 0-9.728 0.512-9.728 2.048-0.512 1.024 0 3.072 2.048 5.632 2.048 3.072 4.608 5.632 7.68 9.216 3.072 3.072 5.632 7.168 8.192 11.264 5.12 14.848 5.12 28.16 0 38.912-5.632 10.752-14.336 19.968-27.136 27.648-8.192 4.096-14.848 11.264-17.92 20.48-3.584 9.216-5.12 18.432-4.608 28.16s2.048 18.432 5.632 25.6c3.072 7.68 8.192 13.312 13.824 16.384 8.704 3.072 14.848 9.216 18.944 17.92 4.096 8.192 6.144 17.92 6.144 27.648s-2.048 18.432-4.608 26.624c-3.072 8.192-7.68 13.824-14.336 16.896-8.192 4.608-14.848 10.752-19.456 19.456-4.608 8.192-7.168 17.92-7.168 28.672s2.048 21.504 6.144 31.744c4.096 10.24 10.752 18.432 20.48 25.088 6.656 4.096 11.776 10.24 15.872 17.92 4.608 7.68 6.144 15.36 7.168 24.064 0.512 8.704-1.536 16.896-5.12 25.088s-10.24 14.848-19.968 19.968c-10.24 5.12-17.92 13.312-23.040 23.552-4.608 10.24-7.168 20.992-7.168 31.744s2.56 20.992 7.168 30.72c4.608 9.728 11.264 17.408 19.456 22.528 17.92 9.728 27.648 23.040 29.184 39.424 1.536 16.896 0.512 32.256-4.096 46.080-3.584 10.752-9.728 20.48-18.944 29.184-9.728 8.704-21.504 12.8-36.352 12.8h-755.712v125.952h887.808c7.168 0 13.312-2.56 18.432-8.192s8.704-11.776 10.24-19.456c1.536-7.68 1.024-15.36-1.536-23.552s-7.68-14.848-14.848-20.48c-6.144-5.632-11.776-12.288-16.384-20.992s-7.168-17.408-8.192-26.624c-0.512-9.216 1.024-18.432 4.096-27.648s8.704-15.872 17.408-19.968c11.776-6.656 20.48-15.36 26.112-26.624s8.704-22.528 8.704-33.792c0-11.264-3.072-22.016-8.704-31.744s-13.824-16.896-24.064-20.992c-11.776-4.608-19.968-10.752-25.088-18.432-5.632-8.192-8.192-16.896-8.704-26.624s1.536-18.944 6.144-28.16c5.12-9.216 12.288-17.408 23.040-23.552 10.24-6.144 18.432-14.848 23.040-25.6s6.656-21.504 6.144-32.256c-0.512-10.752-3.072-20.48-7.68-29.696-6.144-9.216-12.8-14.336-22.528-15.36zM1210.88 504.32c-12.288-3.072-22.528-9.728-29.184-18.432-6.656-9.216-10.24-18.432-11.264-28.672-0.512-9.728 2.048-19.456 7.68-29.184 6.144-9.728 14.336-16.384 26.112-20.992 10.24-4.608 18.432-10.752 23.552-19.456s8.192-17.92 8.704-27.648c0.512-9.728-1.536-18.944-5.632-27.648s-10.24-15.36-18.944-19.456c-26.112-13.312-39.936-28.672-40.96-47.104-1.536-18.432 8.704-32.768 29.696-43.52 9.728-4.096 16.896-10.752 23.040-19.968 5.632-9.216 9.216-18.944 9.728-29.184s-1.536-19.456-5.632-27.136c-4.096-8.192-11.264-13.824-20.48-17.408-12.8-3.072-22.528-9.216-29.184-17.92-6.656-8.192-10.24-17.92-10.752-27.136-0.512-9.728 2.048-19.456 7.68-29.184s14.848-17.92 27.648-24.576c8.704-4.096 14.336-11.264 18.432-19.968 3.584-9.216 5.12-17.92 4.096-26.624-1.536-8.704-4.096-16.384-8.704-23.552s-11.264-10.752-19.968-10.752h-824.32v809.472h834.048c8.192 0 15.36-3.072 19.968-10.752 4.608-7.168 7.168-14.848 7.68-23.552s-1.536-17.408-5.632-25.6c-4.096-8.704-11.264-14.336-20.48-17.92-9.728-3.072-16.896-8.704-23.040-16.384-5.632-7.168-9.216-15.872-10.24-25.088s1.024-17.92 6.144-26.624c5.12-8.704 14.336-15.36 27.136-19.456 9.216-4.096 16.896-10.752 23.040-19.456 5.632-8.704 9.216-17.408 9.216-26.624 0.512-9.216-1.536-17.92-6.144-26.112-4.608-7.168-12.288-12.8-23.040-16.384zM830.976 396.288c-5.12 0-10.752 0.512-16.384 1.536-5.632 1.536-6.656 4.608-4.096 9.728 1.536 2.048 6.144 9.728 15.36 22.528 8.704 13.312 18.944 26.624 29.696 40.96 11.264 14.848 20.992 28.16 30.72 40.96 9.216 12.8 15.36 20.992 17.408 24.576 5.632 8.192 2.048 18.432-9.728 30.72-2.048 2.048-6.144 5.632-12.8 9.728-6.144 4.096-11.776 7.168-16.896 9.728-8.704 3.072-14.848 3.584-18.432 1.536s-8.192-6.656-13.312-14.336c-2.048-3.072-7.168-11.264-15.872-23.552-8.192-12.8-17.408-25.6-26.624-39.936s-17.92-26.624-26.112-37.888c-8.192-11.264-12.288-17.92-13.312-20.48-2.048-4.096-6.144-6.144-11.776-4.608-5.632 1.024-9.728 3.584-11.776 8.192-1.024 2.048-5.632 8.192-14.336 18.944-8.704 10.24-17.408 21.504-26.624 34.816s-18.432 25.088-27.648 36.352c-9.216 11.264-14.848 18.944-18.432 23.552-9.728 18.432-19.456 24.064-29.696 17.408-7.168-4.096-14.336-8.704-19.968-13.824s-11.264-9.216-16.384-12.288c-10.24-7.168-12.288-17.408-4.608-29.184 17.92-21.504 33.792-41.472 47.616-59.904 11.776-14.848 22.528-29.184 33.28-43.52 10.24-13.824 16.896-22.016 18.432-24.064 2.048-4.096 0-6.656-6.144-6.656h-18.944c-5.12 0-12.8 0-23.040-0.512s-19.456-0.512-27.648 0.512c-8.192 0-15.36-2.048-20.48-6.656-5.12-4.096-6.656-9.728-4.608-15.872 1.024-4.608 1.536-10.752 1.536-19.456v-19.968c0-5.12 1.536-8.192 4.608-8.704s6.656-0.512 11.264-0.512h91.648c12.288 0 18.944-2.56 18.944-8.192v-30.72c0-5.632-1.024-8.192-3.072-8.192h-105.472c-6.144 1.024-10.24-0.512-12.288-4.608-2.048-4.608-3.584-9.216-4.608-14.848s-1.024-10.752 0-15.36c1.024-5.12 1.536-9.216 1.536-12.288 0-14.336 6.656-20.992 20.48-20.992h93.696c5.632 0 8.704-0.512 9.216-2.56 1.024-1.536 1.536-5.12 1.536-10.752 1.024-5.632 1.536-14.848 0.512-29.184-0.512-14.336-1.024-23.040-1.024-27.648 0-11.776 6.656-17.92 20.48-17.92h50.688c8.192 0 12.8 2.56 12.8 8.192v64.512c0 10.752 4.608 16.384 13.824 16.384h14.336c7.168 0 15.872 0 24.576 1.024 9.216 0.512 17.408 0.512 26.112 0.512h20.48c14.848 0 22.528 5.12 22.528 15.872v35.84c0 9.728-5.12 14.848-15.872 14.848h-91.648c-10.24-2.048-15.872 0-15.872 6.656 0 3.072 0 7.168-0.512 11.776s-0.512 9.216-0.512 13.824c0 4.096 1.536 7.68 5.632 9.728s7.68 3.584 11.776 3.584h93.184c10.24 0 15.872 3.584 15.872 11.264v38.912c0 4.096-2.048 8.192-5.632 12.8s-8.192 6.656-13.312 6.656l-54.272 1.024z" />
<glyph unicode="&#xe914;" glyph-name="17" d="M329.525 768.453l56.285 58.261 393.996-392.021-393.996-392.021-56.285 58.261 331.786 333.761z" />
<glyph unicode="&#xe915;" glyph-name="18" d="M641.975 492.991c-7.698 6.999-19.596 6.399-26.595-1.3l-102.48-113.178-103.78 114.478c-6.999 7.698-18.896 8.298-26.595 1.3s-8.298-18.896-1.3-26.595l89.682-99.081h-75.785c-10.398 0-18.796-8.398-18.796-18.796s8.398-18.796 18.796-18.796h98.281v-50.69h-98.281c-10.398 0-18.796-8.398-18.796-18.796s8.398-18.796 18.796-18.796h98.281v-82.684c0-10.398 8.398-18.796 18.796-18.796s18.796 8.398 18.796 18.796v82.684h97.981c10.398 0 18.796 8.398 18.796 18.796s-8.398 18.796-18.796 18.796h-97.881v50.69h97.881c10.398 0 18.796 8.398 18.796 18.796s-8.398 18.796-18.796 18.796h-74.186l88.583 97.781c6.899 7.698 6.299 19.696-1.4 26.595zM730.657 638.963c-7.898 3.799-8.798 14.597-1.8 19.896 7.698 5.799 15.097 12.298 22.196 19.396 64.887 64.887 76.785 158.369 26.395 208.759-20.996 20.996-49.49 31.094-80.284 31.094-19.196 0-39.192-3.899-58.988-11.598-31.794 32.994-76.385 53.49-125.875 53.49-47.591 0-90.682-18.996-122.276-49.69-17.197 5.799-34.493 8.798-51.090 8.798-30.794 0-59.188-10.098-80.184-31.094-50.39-50.39-38.492-143.772 26.395-208.759 5.999-5.999 12.298-11.598 18.796-16.597 6.999-5.499 5.999-16.297-2-19.996-175.266-79.984-297.142-256.65-297.142-461.81v-82.984c0-89.283 72.386-161.668 161.668-161.668h691.665c89.283 0 161.668 72.386 161.668 161.668v82.984c0 202.061-118.177 376.526-289.144 458.111zM955.813 97.868c0-53.889-43.791-97.681-97.681-97.681h-691.665c-53.889 0-97.681 43.791-97.681 97.681v82.984c0 173.166 101.88 331.635 259.649 403.621 24.195 10.998 40.492 33.393 43.591 59.688 3.199 26.595-7.599 52.29-28.594 68.787-4.599 3.599-8.898 7.499-12.997 11.498-42.592 42.592-48.091 96.481-26.395 118.277 10.198 10.198 24.695 12.398 34.993 12.398 9.698 0 19.996-1.8 30.594-5.399l36.993-12.498 27.995 27.195c20.996 20.396 48.591 31.594 77.685 31.594 30.394 0 58.789-12.098 80.084-33.993l29.594-30.594 39.592 15.497c12.098 4.699 24.495 7.199 35.693 7.199 10.298 0 24.795-2.2 34.993-12.398 13.597-13.597 13.197-34.393 11.798-45.591-3.199-24.995-17.097-51.49-38.193-72.586-4.899-4.899-10.198-9.498-15.597-13.597-21.296-16.097-32.494-41.592-29.794-68.187 2.699-26.395 18.596-48.99 42.592-60.488 153.47-73.286 252.651-230.455 252.651-400.422v-82.984h0.1z" />
<glyph unicode="&#xe916;" glyph-name="19" d="M525.342 46.65h-363.059c-11.033 0-20.009 8.976-20.009 20.009v769.052c0 11.033 8.975 20.009 20.009 20.009h631.497c11.032 0 20.009-8.975 20.009-20.009v-363.194c0-11.051 8.959-20.009 20.009-20.009s20.009 8.958 20.009 20.009v363.194c0 33.099-26.928 60.027-60.027 60.027h-631.496c-33.099 0-60.027-26.928-60.027-60.027v-769.052c0-33.099 26.928-60.027 60.027-60.027h363.059c11.051 0 20.009 8.959 20.009 20.009s-8.958 20.010-20.009 20.010zM715.325 755.464c0 11.051-8.959 20.009-20.009 20.009h-448.355c-11.051 0-20.009-8.958-20.009-20.009s8.958-20.009 20.009-20.009h448.355c11.050-0.001 20.009 8.957 20.009 20.009zM467.635 631.727h-220.674c-11.051 0-20.009-8.958-20.009-20.009s8.958-20.009 20.009-20.009h220.674c11.051 0 20.009 8.958 20.009 20.009s-8.958 20.009-20.009 20.009zM467.635 487.983h-220.674c-11.051 0-20.009-8.958-20.009-20.009s8.958-20.009 20.009-20.009h220.674c11.051 0 20.009 8.958 20.009 20.009s-8.958 20.009-20.009 20.009zM884.388 416.334h-131.219v187.499c0 47.832-38.915 86.749-86.75 86.749h-0.737c-48.091 0-87.216-39.125-87.216-87.216v-201.645c-13.3-7.021-25.062-16.139-34.956-26.86-33.551 21.275-78.617 17.316-107.854-11.922-33.844-33.847-33.844-88.918 0.001-122.764l93.651-93.651c1.495-1.495 3.17-2.698 4.954-3.621 12.707-12.717 28.874-21.491 45.409-28.61l-0.846-94.91c-0.047-5.337 2.039-10.471 5.797-14.264 3.758-3.79 8.873-5.923 14.212-5.923h268.087c10.931 0 19.839 8.772 20.007 19.702l1.418 92.293c21.959 1.296 41.313 5.995 52.862 22.225 11.746 16.506 11.746 38.812 11.746 75.769v138.583c0 37.807-30.759 68.565-68.565 68.565zM463.955 334.643c8.784 8.784 20.534 13.623 33.085 13.623 8.684 0 16.984-2.321 24.185-6.659-7.986-17.134-12.344-36.193-12.344-56.125v-61.935l-44.925 44.925c-18.244 18.242-18.244 47.926 0 66.17zM912.934 209.185c0-24.939 0-46.478-4.332-52.568-2.773-3.897-16.22-5.872-39.969-5.872-10.931 0-19.839-8.772-20.007-19.702l-1.411-91.828h-228.193l0.786 88.305c0.073 8.316-5.006 15.812-12.756 18.827-44.567 17.332-58.154 32.014-58.154 62.838v76.298c0 37.997 22.662 71.436 57.735 85.191 8.455 3.316 13.617 11.911 12.57 20.934-0.118 1.003-0.264 2.010-0.412 3.022-0.125 0.837-0.295 1.984-0.305 2.362v206.373c0 26.026 21.173 47.199 47.199 47.199h0.737c25.767 0 46.731-20.963 46.731-46.731v-207.508c0-11.051 8.959-20.009 20.009-20.009h151.227c15.739 0 28.546-12.807 28.546-28.547v-138.583z" />
<glyph unicode="&#xe917;" glyph-name="20" d="M483.883 476.242h-299.302c-60.681 0-110.049 49.367-110.049 110.049v189.252c0 60.681 49.367 110.049 110.049 110.049h189.252c60.681 0 110.049-49.367 110.049-110.049v-299.302zM184.581 845.576c-38.614 0-70.031-31.417-70.031-70.031v-189.253c0-38.614 31.417-70.031 70.031-70.031h259.283v259.283c0 38.614-31.417 70.031-70.031 70.031h-189.252zM840.875 476.242h-301.256v299.302c0 60.681 49.367 110.049 110.049 110.049h191.207c60.681 0 110.049-49.367 110.049-110.049v-189.253c0-60.681-49.368-110.048-110.049-110.048zM579.636 516.26h261.239c38.614 0 70.031 31.417 70.031 70.031v189.253c0 38.614-31.417 70.031-70.031 70.031h-191.208c-38.615 0-70.031-31.417-70.031-70.031v-259.284zM373.834 9.201h-189.253c-60.681 0-110.049 49.367-110.049 110.049v191.208c0 60.681 49.367 110.049 110.049 110.049h299.302v-301.257c0-60.681-49.367-110.049-110.048-110.049zM184.581 380.49c-38.614 0-70.031-31.417-70.031-70.031v-191.209c0-38.614 31.417-70.031 70.031-70.031h189.252c38.614 0 70.031 31.417 70.031 70.031v261.24h-259.283zM840.875 9.201h-191.208c-60.681 0-110.049 49.367-110.049 110.049v301.257h301.257c60.681 0 110.049-49.367 110.049-110.049v-191.209c0-60.68-49.368-110.048-110.049-110.048zM579.636 380.49v-261.24c0-38.614 31.415-70.031 70.031-70.031h191.208c38.614 0 70.031 31.417 70.031 70.031v191.208c0 38.614-31.417 70.031-70.031 70.031h-261.239z" />
</font>
</defs>
</svg>
